<svg id="Layer_1" data-name="Layer 1" xmlns="http://www.w3.org/2000/svg" xmlns:xlink="http://www.w3.org/1999/xlink" viewBox="0 0 1140.01 1140.01"><defs><style>.cls-1{fill:none;}.cls-2{clip-path:url(#clip-path);}.cls-3{fill:url(#linear-gradient);}</style><clipPath id="clip-path" transform="translate(58.01 128.46)"><path class="cls-1" d="M643.52,256.73l-57.27-57.27-71.42-71.41a4,4,0,0,0-5.66,0L128.05,509.17a4,4,0,0,0,0,5.66L380.48,767.27,509.17,896a4,4,0,0,0,5.66,0L896,514.83a4,4,0,0,0,0-5.66Zm-27.58,27.58-43.83,43.84a4,4,0,0,0,0,5.66l71.68,71.68a4,4,0,0,1,0,5.66l-19.72,19.72a4,4,0,0,1-5.66,0l-99.54-99.53a4,4,0,0,0-5.66,0L306,538.59a4,4,0,0,1-5.66,0l-23.77-23.76a4,4,0,0,1,0-5.66L558.67,227a4,4,0,0,1,5.66,0l51.61,51.61A4,4,0,0,1,615.94,284.31ZM408.06,739.69l43.83-43.84a4,4,0,0,0,0-5.66L380.2,618.5a4,4,0,0,1,0-5.66l133-133a4,4,0,0,1,5.66,0L544,505a4,4,0,0,1,0,5.66l-72.61,72.6a4,4,0,0,0,0,5.66L540,657.5a4,4,0,0,0,5.66,0L621.16,582l.13.13L718,485.4a4,4,0,0,1,5.66,0l23.76,23.77a4,4,0,0,1,0,5.66L465.33,797a4,4,0,0,1-5.66,0l-51.61-51.61A4,4,0,0,1,408.06,739.69Zm82,82L797,514.83a4,4,0,0,0,0-5.66L723.7,435.9a4,4,0,0,0-5.66,0l-96.85,96.84-.12-.12L545.68,608a4,4,0,0,1-5.66,0l-19.09-19.09a4,4,0,0,1,0-5.66l72.61-72.6a4,4,0,0,0,0-5.66l-74.67-74.66a4,4,0,0,0-5.66,0L330.71,612.84a4,4,0,0,0,0,5.66l71.69,71.69a4,4,0,0,1,0,5.66l-19.09,19.09a4,4,0,0,1-5.66,0L177.54,514.83a4,4,0,0,1,0-5.66L509.17,177.54a4,4,0,0,1,5.66,0l19.09,19.09a4,4,0,0,1,0,5.66L227,509.17a4,4,0,0,0,0,5.66l73.26,73.26a4,4,0,0,0,5.66,0L513.21,380.83a4,4,0,0,1,5.66,0l99.54,99.54a4,4,0,0,0,5.66,0l69.22-69.22a4,4,0,0,0,0-5.66L621.6,333.81a4,4,0,0,1,0-5.66l19.09-19.09a4,4,0,0,1,5.66,0L846.46,509.17a4,4,0,0,1,0,5.66L514.83,846.46a4,4,0,0,1-5.66,0l-19.09-19.09A4,4,0,0,1,490.08,821.71Z"/></clipPath><linearGradient id="linear-gradient" x1="128.78" y1="489.53" x2="1028.78" y2="489.53" gradientTransform="translate(-66.78 -47.99)" gradientUnits="userSpaceOnUse"><stop offset="0" stop-color="#6a5d75"/><stop offset="0.57" stop-color="#faa21b"/><stop offset="0.64" stop-color="#faa423"/><stop offset="0.75" stop-color="#faa93a"/><stop offset="0.89" stop-color="#fbb260"/><stop offset="1" stop-color="#fbba82"/></linearGradient></defs><g class="cls-2"><rect class="cls-3" x="62" y="-8.45" width="900" height="900" transform="translate(-11.76 914.47) rotate(-71.4)"/></g></svg>